<svg width="88" height="88" viewBox="0 0 88 88" fill="none" xmlns="http://www.w3.org/2000/svg">
<path d="M61.2067 33.6127C61.3845 33.9207 61.5026 34.2373 61.5612 34.5628C61.6213 34.8873 61.6025 35.2317 61.5049 35.596L55.0629 59.638C54.8677 60.3666 54.4521 60.9144 53.8163 61.2815C53.182 61.6477 52.5005 61.7332 51.772 61.538C51.0434 61.3428 50.5014 60.9373 50.1458 60.3214C49.7903 59.7056 49.7101 59.0334 49.9053 58.3049L54.6881 40.4555L28.8228 55.3888C28.1684 55.7666 27.5016 55.856 26.8222 55.657C26.1437 55.4596 25.6155 55.0337 25.2378 54.3794C24.86 53.7251 24.764 53.0486 24.9499 52.3501C25.1382 51.6523 25.5595 51.1144 26.2138 50.7367L52.0214 35.8367L34.172 31.0539C33.4434 30.8587 32.9014 30.4532 32.5458 29.8373C32.1903 29.2215 32.1101 28.5493 32.3053 27.8208C32.5005 27.0922 32.9153 26.5448 33.5496 26.1786C34.1855 25.8115 34.8677 25.7256 35.5962 25.9208L59.6383 32.3628C60.0025 32.4604 60.3102 32.6164 60.5612 32.8307C60.8137 33.0441 61.0289 33.3048 61.2067 33.6127Z" fill="#131313"/>
</svg>
