<svg width="27" height="27" viewBox="0 0 27 27" fill="none" xmlns="http://www.w3.org/2000/svg">
<path d="M21.4407 13.1436C21.4407 13.2896 21.4177 13.4266 21.3717 13.5543C21.3264 13.6821 21.249 13.8008 21.1395 13.9103L13.9105 21.1393C13.6914 21.3584 13.4311 21.4679 13.1295 21.4679C12.8287 21.4679 12.5687 21.3584 12.3497 21.1393C12.1306 20.9202 12.0211 20.6647 12.0211 20.3726C12.0211 20.0805 12.1306 19.8249 12.3497 19.6059L17.7166 14.2389L5.44927 14.2389C5.13893 14.2389 4.88336 14.1338 4.68256 13.9235C4.48175 13.7139 4.38135 13.4539 4.38135 13.1436C4.38135 12.8333 4.48613 12.573 4.6957 12.3627C4.906 12.1531 5.16631 12.0483 5.47665 12.0483L17.7166 12.0483L12.3497 6.68133C12.1306 6.46227 12.0211 6.2067 12.0211 5.91461C12.0211 5.62253 12.1306 5.36697 12.3497 5.14791C12.5687 4.92884 12.8287 4.81931 13.1295 4.81931C13.4311 4.81931 13.6914 4.92884 13.9105 5.1479L21.1395 12.3769C21.249 12.4864 21.3264 12.6051 21.3717 12.7329C21.4177 12.8607 21.4407 12.9976 21.4407 13.1436Z" fill="#131313"/>
</svg>
