<svg width="42" height="42" viewBox="0 0 42 42" fill="none" xmlns="http://www.w3.org/2000/svg">
<path d="M21.0002 34.2563C20.7669 34.2563 20.5481 34.2195 20.3439 34.146C20.1398 34.0737 19.9502 33.95 19.7752 33.775L8.22519 22.225C7.87519 21.875 7.7002 21.4591 7.7002 20.9773C7.7002 20.4966 7.87519 20.0813 8.22519 19.7312C8.57519 19.3813 8.98353 19.2063 9.4502 19.2063C9.91686 19.2063 10.3252 19.3813 10.6752 19.7312L19.2502 28.3062V8.70625C19.2502 8.21042 19.4182 7.80208 19.7542 7.48125C20.089 7.16042 20.5044 7 21.0002 7C21.496 7 21.9119 7.16742 22.2479 7.50225C22.5828 7.83825 22.7502 8.25417 22.7502 8.75V28.3062L31.3252 19.7312C31.6752 19.3813 32.0835 19.2063 32.5502 19.2063C33.0169 19.2063 33.4252 19.3813 33.7752 19.7312C34.1252 20.0813 34.3002 20.4966 34.3002 20.9773C34.3002 21.4591 34.1252 21.875 33.7752 22.225L22.2252 33.775C22.0502 33.95 21.8606 34.0737 21.6564 34.146C21.4523 34.2195 21.2335 34.2563 21.0002 34.2563Z" fill="#F1EEE9"/>
</svg>
