<svg width="45" height="45" viewBox="0 0 45 45" fill="none" xmlns="http://www.w3.org/2000/svg">
<path d="M34.3132 10.7062C34.1397 10.5324 33.9337 10.3945 33.7068 10.3004C33.48 10.2063 33.2369 10.1578 32.9913 10.1578C32.7457 10.1578 32.5026 10.2063 32.2757 10.3004C32.0489 10.3945 31.8429 10.5324 31.6694 10.7062L22.5007 19.8562L13.3319 10.6874C13.1583 10.5138 12.9522 10.3761 12.7254 10.2822C12.4986 10.1882 12.2555 10.1399 12.01 10.1399C11.7645 10.1399 11.5215 10.1882 11.2946 10.2822C11.0678 10.3761 10.8618 10.5138 10.6882 10.6874C10.5146 10.861 10.3769 11.0671 10.2829 11.2939C10.189 11.5207 10.1406 11.7638 10.1406 12.0093C10.1406 12.2548 10.189 12.4979 10.2829 12.7247C10.3769 12.9515 10.5146 13.1576 10.6882 13.3312L19.8569 22.4999L10.6882 31.6687C10.5146 31.8423 10.3769 32.0484 10.2829 32.2752C10.189 32.502 10.1406 32.7451 10.1406 32.9906C10.1406 33.236 10.189 33.4791 10.2829 33.7059C10.3769 33.9328 10.5146 34.1388 10.6882 34.3124C10.8618 34.486 11.0678 34.6237 11.2946 34.7177C11.5215 34.8116 11.7645 34.86 12.01 34.86C12.2555 34.86 12.4986 34.8116 12.7254 34.7177C12.9522 34.6237 13.1583 34.486 13.3319 34.3124L22.5007 25.1437L31.6694 34.3124C31.843 34.486 32.0491 34.6237 32.2759 34.7177C32.5027 34.8116 32.7458 34.86 32.9913 34.86C33.2368 34.86 33.4799 34.8116 33.7067 34.7177C33.9335 34.6237 34.1396 34.486 34.3132 34.3124C34.4868 34.1388 34.6245 33.9328 34.7184 33.7059C34.8123 33.4791 34.8607 33.236 34.8607 32.9906C34.8607 32.7451 34.8123 32.502 34.7184 32.2752C34.6245 32.0484 34.4868 31.8423 34.3132 31.6687L25.1444 22.4999L34.3132 13.3312C35.0257 12.6187 35.0257 11.4187 34.3132 10.7062Z" fill="#F1EEE9"/>
</svg>
