<svg width="42" height="42" viewBox="0 0 42 42" fill="none" xmlns="http://www.w3.org/2000/svg">
<path d="M7 10.5C7 10.0359 7.18437 9.59075 7.51256 9.26256C7.84075 8.93437 8.28587 8.75 8.75 8.75H33.25C33.7141 8.75 34.1593 8.93437 34.4874 9.26256C34.8156 9.59075 35 10.0359 35 10.5C35 10.9641 34.8156 11.4092 34.4874 11.7374C34.1593 12.0656 33.7141 12.25 33.25 12.25H8.75C8.28587 12.25 7.84075 12.0656 7.51256 11.7374C7.18437 11.4092 7 10.9641 7 10.5ZM7 31.5C7 31.0359 7.18437 30.5907 7.51256 30.2626C7.84075 29.9344 8.28587 29.75 8.75 29.75H33.25C33.7141 29.75 34.1593 29.9344 34.4874 30.2626C34.8156 30.5907 35 31.0359 35 31.5C35 31.9641 34.8156 32.4093 34.4874 32.7374C34.1593 33.0656 33.7141 33.25 33.25 33.25H8.75C8.28587 33.25 7.84075 33.0656 7.51256 32.7374C7.18437 32.4093 7 31.9641 7 31.5ZM19.25 19.25C18.7859 19.25 18.3408 19.4344 18.0126 19.7626C17.6844 20.0908 17.5 20.5359 17.5 21C17.5 21.4641 17.6844 21.9092 18.0126 22.2374C18.3408 22.5656 18.7859 22.75 19.25 22.75H33.25C33.7141 22.75 34.1593 22.5656 34.4874 22.2374C34.8156 21.9092 35 21.4641 35 21C35 20.5359 34.8156 20.0908 34.4874 19.7626C34.1593 19.4344 33.7141 19.25 33.25 19.25H19.25Z" fill="#131313"/>
</svg>
